HIERARCHY
ROOT Hips
{
  OFFSET -1.64238 93.7722 24.3062
  CHANNELS 6 Xposition Yposition Zposition Zrotation Xrotation Yrotation
  JOINT Spine
  {
    OFFSET 0 0 4.66705
    CHANNELS 6 Xposition Yposition Zposition Zrotation Xrotation Yrotation
    JOINT Spine1
    {
      OFFSET 9.33409 0 0
      CHANNELS 6 Xposition Yposition Zposition Zrotation Xrotation Yrotation
      JOINT Spine2
      {
        OFFSET 11.0269 0 0
        CHANNELS 6 Xposition Yposition Zposition Zrotation Xrotation Yrotation
        JOINT Neck
        {
          OFFSET 27.2125 0 -10.2659
          CHANNELS 6 Xposition Yposition Zposition Zrotation Xrotation Yrotation
          JOINT Head
          {
            OFFSET 10.9224 0 0
            CHANNELS 6 Xposition Yposition Zposition Zrotation Xrotation Yrotation
            End Site
            {
              OFFSET 17.6932 0 0
            }
          }
        }
        JOINT RightShoulder
        {
          OFFSET 23.8429 -1.55531 -7.12573
          CHANNELS 6 Xposition Yposition Zposition Zrotation Xrotation Yrotation
          JOINT RightArm
          {
            OFFSET 14.1892 0 0
            CHANNELS 6 Xposition Yposition Zposition Zrotation Xrotation Yrotation
            JOINT RightForeArm
            {
              OFFSET 29.5651 0 0
              CHANNELS 6 Xposition Yposition Zposition Zrotation Xrotation Yrotation
              JOINT RightHand
              {
                OFFSET 25.3936 0 0
                CHANNELS 6 Xposition Yposition Zposition Zrotation Xrotation Yrotation
                JOINT RightFingerBase
                {
                  OFFSET 2.18163 -1.45065e-005 0
                  CHANNELS 6 Xposition Yposition Zposition Zrotation Xrotation Yrotation
                  JOINT RightHandMiddle1
                  {
                    OFFSET 6.77462 0.0865053 -1.22157
                    CHANNELS 6 Xposition Yposition Zposition Zrotation Xrotation Yrotation
                    End Site
                    {
                      OFFSET 0 0 0
                    }
                  }
                }
              }
            }
          }
        }
        JOINT LeftShoulder
        {
          OFFSET 23.8431 1.55531 -7.12577
          CHANNELS 6 Xposition Yposition Zposition Zrotation Xrotation Yrotation
          JOINT LeftArm
          {
            OFFSET -14.1892 0.000694916 0
            CHANNELS 6 Xposition Yposition Zposition Zrotation Xrotation Yrotation
            JOINT LeftForeArm
            {
              OFFSET -29.5651 0 0
              CHANNELS 6 Xposition Yposition Zposition Zrotation Xrotation Yrotation
              JOINT LeftHand
              {
                OFFSET -25.3936 0 0
                CHANNELS 6 Xposition Yposition Zposition Zrotation Xrotation Yrotation
                JOINT LeftFingerBase
                {
                  OFFSET -2.18182 -0.000553688 0
                  CHANNELS 6 Xposition Yposition Zposition Zrotation Xrotation Yrotation
                  JOINT LeftHandMiddle1
                  {
                    OFFSET -6.77445 -0.0859989 1.22158
                    CHANNELS 6 Xposition Yposition Zposition Zrotation Xrotation Yrotation
                    End Site
                    {
                      OFFSET 0 0 0
                    }
                  }
                }
              }
            }
          }
        }
      }
    }
  }
  JOINT RightUpLeg
  {
    OFFSET -8.89671 -5.28428 -4.10676
    CHANNELS 6 Xposition Yposition Zposition Zrotation Xrotation Yrotation
    JOINT RightLeg
    {
      OFFSET 43.6759 0 0
      CHANNELS 6 Xposition Yposition Zposition Zrotation Xrotation Yrotation
      JOINT RightFoot
      {
        OFFSET 45.3154 0 0
        CHANNELS 6 Xposition Yposition Zposition Zrotation Xrotation Yrotation
        JOINT RightToeBase
        {
          OFFSET 14.6877 0 0
          CHANNELS 6 Xposition Yposition Zposition Zrotation Xrotation Yrotation
          End Site
          {
            OFFSET 7.03218 0 0
          }
        }
      }
    }
  }
  JOINT LeftUpLeg
  {
    OFFSET 8.89671 -5.28429 -4.10672
    CHANNELS 6 Xposition Yposition Zposition Zrotation Xrotation Yrotation
    JOINT LeftLeg
    {
      OFFSET -43.676 0 0
      CHANNELS 6 Xposition Yposition Zposition Zrotation Xrotation Yrotation
      JOINT LeftFoot
      {
        OFFSET -45.3154 0 0
        CHANNELS 6 Xposition Yposition Zposition Zrotation Xrotation Yrotation
        JOINT LeftToeBase
        {
          OFFSET -14.6877 0 0
          CHANNELS 6 Xposition Yposition Zposition Zrotation Xrotation Yrotation
          End Site
          {
            OFFSET -7.03217 0 0
          }
        }
      }
    }
  }
}
MOTION
Frames:	8
Frame Time:	0.0333333
-1.64214 93.7722 24.3054 46.1034 88.8656 133.894 -2.22045e-016 -3.55271e-015 4.66705 -91.6815 -0.535814 -89.5592 9.33409 -2.10942e-015 0 1.08019 -3.35821 -5.9624 11.0269 -2.22045e-015 0 1.47691 -3.20376 -2.00258 27.2125 -6.21725e-015 -10.2659 3.28865 -12.0548 41.9993 10.9224 -3.55271e-015 0 -16.2451 -8.9962 -28.0539 23.8429 -1.55531 -7.12573 -108.886 -13.161 6.97618 14.1892 0 0 -14.4864 46.1108 11.8716 29.5651 4.26326e-014 2.84217e-014 8.19808 -42.3609 5.92013 25.3936 -2.84217e-014 3.01981e-014 24.6436 -0.178768 16.8886 2.18163 2.84217e-014 0 -4.57553e-008 -2.07819e-007 1.60631e-008 6.77462 0.0865053 -1.22157 -21.6739 1.19639 -9.42508 23.8431 1.55531 -7.12577 95.8609 9.53676 175.751 -14.1892 0.000694916 -7.10543e-015 -14.2079 29.6461 5.2302 -29.5651 0 -4.27958e-007 5.32824 -30.1213 9.15483 -25.3936 2.7868e-008 -5.56579e-007 22.2084 3.47088 2.88066 -2.18182 -0.000553688 -9.22559e-006 1.20534e-006 2.447e-007 -8.05762e-008 -6.77445 -0.0859989 1.22158 -21.6739 1.19639 -9.42508 -8.89671 -5.28428 -4.10676 87.1333 0.733583 90.3141 43.6759 -8.88178e-015 -1.42109e-014 0.77231 15.7774 -2.36617 45.3154 -5.32907e-015 -2.4869e-014 94.9052 -20.985 91.6619 14.6877 -1.77636e-015 0 7.13107 -1.32155e-006 -5.71518e-006 8.89671 -5.28429 -4.10672 93.4624 -0.969516 -85.6499 -43.676 8.88178e-015 -3.48883e-006 1.48744 1.10812 -7.68505 -45.3154 -7.10543e-015 3.71138e-006 93.4665 -18.0482 91.6589 -14.6877 -1.30235e-006 -3.88953e-006 7.13108 2.11075e-007 9.6877e-006 
-1.63944 93.7735 24.2955 46.6163 88.8549 133.381 0 3.55271e-015 4.66705 -91.7642 -0.85203 -89.5334 9.33409 -1.9984e-015 3.55271e-015 1.73587 -3.52154 -5.98238 11.0269 -1.77636e-015 -1.77636e-015 2.14735 -3.28703 -2.02441 27.2125 -5.32907e-015 -10.2659 1.06418 -12.8391 42.1376 10.9224 -1.77636e-015 0 -15.1054 -8.65533 -27.9846 23.8429 -1.55531 -7.12573 -111.228 -13.3775 6.76546 14.1892 2.84217e-014 0 -26.367 58.01 24.1741 29.5651 2.84217e-014 0 18.241 -54.9415 6.69975 25.3936 -2.84217e-014 3.01981e-014 22.6732 -0.843802 23.031 2.18163 2.84217e-014 7.10543e-015 -4.57553e-008 -2.07819e-007 1.60631e-008 6.77462 0.0865053 -1.22157 -21.6739 1.19639 -9.42508 23.8431 1.55531 -7.12577 93.4874 9.52453 175.936 -14.1892 0.000694916 -3.55271e-015 -14.6265 29.2934 4.37243 -29.5651 0 -4.27958e-007 5.4327 -29.9459 9.63667 -25.3936 2.7868e-008 -5.56579e-007 22.2862 3.45124 2.92275 -2.18182 -0.000553688 -9.22559e-006 1.20534e-006 2.447e-007 -8.05762e-008 -6.77445 -0.0859989 1.22158 -21.6739 1.19639 -9.42508 -8.89671 -5.28428 -4.10676 87.1337 0.735397 90.2886 43.6759 -8.88178e-015 -1.42109e-014 0.754436 15.766 -2.32153 45.3154 -3.55271e-015 -2.13163e-014 94.9179 -20.9926 91.667 14.6877 -1.77636e-015 -1.77636e-015 7.13107 -1.32155e-006 -5.71518e-006 8.89671 -5.28429 -4.10672 93.4626 -0.972546 -85.6649 -43.676 7.10543e-015 -3.48883e-006 1.49219 1.12078 -7.6713 -45.3154 -8.88178e-015 3.71138e-006 93.4578 -18.0427 91.6559 -14.6877 -1.30235e-006 -3.88953e-006 7.13108 2.11075e-007 9.6877e-006 
-1.63352 93.7758 24.2762 47.7597 88.8299 132.237 0 0 4.66705 -91.8445 -1.23676 -89.6249 9.33409 -1.9984e-015 0 2.48832 -3.67812 -6.01881 11.0269 -1.77636e-015 0 2.91305 -3.35196 -2.06328 27.2125 -3.55271e-015 -10.2659 -1.48084 -13.7804 42.2388 10.9224 -3.55271e-015 -1.42109e-014 -13.7614 -8.32565 -27.7977 23.8429 -1.55531 -7.12573 -113.892 -13.5721 6.38172 14.1892 -2.84217e-014 -7.10543e-015 -58.6825 68.1247 55.4489 29.5651 2.84217e-014 0 35.8283 -69.9437 13.1829 25.3936 0 2.84217e-014 20.368 -1.67249 30.8347 2.18163 4.26326e-014 0 -4.57553e-008 -2.07819e-007 1.60631e-008 6.77462 0.0865053 -1.22157 -21.6739 1.19639 -9.42508 23.8431 1.55531 -7.12577 90.8141 9.50656 176.121 -14.1892 0.000694916 -1.06581e-014 -15.1666 28.8263 3.47167 -29.5651 -2.84217e-014 -4.27958e-007 5.54119 -29.7939 10.224 -25.3936 2.7868e-008 -5.56579e-007 22.413 3.4209 2.98323 -2.18182 -0.000553688 -9.22559e-006 1.20534e-006 2.447e-007 -8.05762e-008 -6.77445 -0.0859989 1.22158 -21.6739 1.19639 -9.42508 -8.89671 -5.28428 -4.10676 87.1312 0.737474 90.2367 43.6759 -8.88178e-015 -1.77636e-014 0.717671 15.7337 -2.22629 45.3154 -5.32907e-015 -1.77636e-014 94.943 -21.014 91.6776 14.6877 0 0 7.13107 -1.32155e-006 -5.71518e-006 8.89671 -5.28429 -4.10672 93.4628 -0.979091 -85.6897 -43.676 8.88178e-015 -3.48883e-006 1.50301 1.15101 -7.65161 -45.3154 -5.32907e-015 3.71138e-006 93.4445 -18.0344 91.6512 -14.6877 -1.30235e-006 -3.88953e-006 7.13108 2.11075e-007 9.6877e-006 
-1.62548 93.7777 24.2567 49.2071 88.7961 130.789 2.22045e-016 0 4.66705 -91.8292 -1.2647 -89.6292 9.33409 -1.9984e-015 0 2.54599 -3.64774 -6.0454 11.0269 -1.77636e-015 0 2.96661 -3.31488 -2.09053 27.2125 -7.10543e-015 -10.2659 -1.6137 -13.8729 42.2189 10.9224 -1.77636e-015 0 -13.6197 -8.3776 -27.6426 23.8429 -1.55531 -7.12573 -114.119 -13.5244 6.16846 14.1892 2.84217e-014 0 -65.1432 68.5953 61.495 29.5651 2.84217e-014 -1.42109e-014 41.9643 -71.3358 17.8622 25.3936 -2.84217e-014 2.84217e-014 20.1365 -1.87061 32.0768 2.18163 1.42109e-014 0 -4.57553e-008 -2.07819e-007 1.60631e-008 6.77462 0.0865053 -1.22157 -21.6739 1.19639 -9.42508 23.8431 1.55531 -7.12577 90.7455 9.50111 176.095 -14.1892 0.000694916 -7.10543e-015 -15.2624 28.6822 3.48074 -29.5651 2.84217e-014 -4.27958e-007 5.52038 -29.819 10.3298 -25.3936 2.7868e-008 -5.56579e-007 22.4848 3.40203 3.02658 -2.18182 -0.000553688 -9.22559e-006 1.20534e-006 2.447e-007 -8.05762e-008 -6.77445 -0.0859989 1.22158 -21.6739 1.19639 -9.42508 -8.89671 -5.28428 -4.10676 87.1256 0.73754 90.2389 43.6759 -8.88178e-015 -1.42109e-014 0.709025 15.6869 -2.2412 45.3154 -3.55271e-015 -2.4869e-014 94.9485 -20.9946 91.678 14.6877 0 -1.77636e-015 7.13107 -1.32155e-006 -5.71518e-006 8.89671 -5.28429 -4.10672 93.4631 -0.984985 -85.7092 -43.676 8.88178e-015 -3.48883e-006 1.5146 1.19003 -7.64542 -45.3154 -7.10543e-015 3.71138e-006 93.4351 -18.0264 91.649 -14.6877 -1.30235e-006 -3.88953e-006 7.13108 2.11075e-007 9.6877e-006 
-1.61595 93.7784 24.2408 50.6525 88.7594 129.344 2.22045e-016 0 4.66705 -91.8008 -1.13779 -89.585 9.33409 -1.9984e-015 3.55271e-015 2.29228 -3.59173 -5.97637 11.0269 -3.55271e-015 1.77636e-015 2.70804 -3.28979 -2.02044 27.2125 -3.55271e-015 -10.2659 -0.543522 -13.4215 41.92 10.9224 -1.77636e-015 -1.42109e-014 -14.1667 -8.51886 -27.4295 23.8429 -1.55531 -7.12573 -112.826 -13.4625 6.43947 14.1892 0 -7.10543e-015 -44.1599 64.1628 41.0444 29.5651 2.84217e-014 0 23.4352 -63.3927 5.36264 25.3936 -5.68434e-014 3.01981e-014 21.8885 -1.33621 27.5709 2.18163 1.42109e-014 0 -4.57553e-008 -2.07819e-007 1.60631e-008 6.77462 0.0865053 -1.22157 -21.6739 1.19639 -9.42508 23.8431 1.55531 -7.12577 91.7253 9.49333 175.922 -14.1892 0.000694916 -7.10543e-015 -15.3176 28.7872 3.91054 -29.5651 -2.84217e-014 -4.27958e-007 5.46876 -29.7399 10.1645 -25.3936 2.7868e-008 -5.56579e-007 22.4611 3.40342 3.0372 -2.18182 -0.000553688 -9.22559e-006 1.20534e-006 2.447e-007 -8.05762e-008 -6.77445 -0.0859989 1.22158 -21.6739 1.19639 -9.42508 -8.89671 -5.28428 -4.10676 87.1209 0.736572 90.2545 43.6759 -8.88178e-015 -1.77636e-014 0.706984 15.6347 -2.28498 45.3154 -7.10543e-015 -2.4869e-014 94.9452 -20.9754 91.6746 14.6877 -1.77636e-015 0 7.13107 -1.32155e-006 -5.71518e-006 8.89671 -5.28429 -4.10672 93.4632 -0.988497 -85.7203 -43.676 7.10543e-015 -3.48883e-006 1.527 1.23065 -7.65569 -45.3154 -8.88178e-015 3.71138e-006 93.4286 -18.0168 91.6487 -14.6877 -1.30235e-006 -3.88953e-006 7.13108 2.11075e-007 9.6877e-006 
-1.6059 93.7776 24.2284 51.6194 88.7331 128.377 0 0 4.66705 -91.9704 -0.821886 -89.5147 9.33409 -1.9984e-015 0 1.67225 -3.93246 -5.84874 11.0269 -2.66454e-015 1.77636e-015 2.13391 -3.70258 -1.887 27.2125 -5.32907e-015 -10.2659 2.10829 -11.5198 43.4112 10.9224 0 -1.42109e-014 -15.8022 -7.8015 -29.0261 23.8429 -1.55531 -7.12573 -111.016 -13.9865 8.7009 14.1892 2.84217e-014 -7.10543e-015 -11.4731 41.584 8.223 29.5651 4.26326e-014 0 9.2262 -37.3735 11.6811 25.3936 -2.84217e-014 2.84217e-014 26.8911 -0.409863 13.3061 2.18163 1.42109e-014 0 -4.57553e-008 -2.07819e-007 1.60631e-008 6.77462 0.0865053 -1.22157 -21.6739 1.19639 -9.42508 23.8431 1.55531 -7.12577 94.5587 9.50833 175.711 -14.1892 0.000694916 -7.10543e-015 -13.9606 29.3121 3.30208 -29.5651 2.84217e-014 -4.27958e-007 5.41229 -29.2946 9.78039 -25.3936 2.7868e-008 -5.56579e-007 22.3603 3.43148 2.96847 -2.18182 -0.000553688 -9.22559e-006 1.20534e-006 2.447e-007 -8.05762e-008 -6.77445 -0.0859989 1.22158 -21.6739 1.19639 -9.42508 -8.89671 -5.28428 -4.10676 87.1179 0.737209 90.2418 43.6759 -8.88178e-015 -1.42109e-014 0.692994 15.5963 -2.27468 45.3154 -7.10543e-015 -2.4869e-014 94.9483 -20.9826 91.675 14.6877 -1.77636e-015 -1.77636e-015 7.13107 -1.32155e-006 -5.71518e-006 8.89671 -5.28429 -4.10672 93.4633 -0.990133 -85.7275 -43.676 7.10543e-015 -3.48883e-006 1.53917 1.26097 -7.66967 -45.3154 -7.10543e-015 3.71138e-006 93.4214 -18.0054 91.6477 -14.6877 -1.30235e-006 -3.88953e-006 7.13108 2.11075e-007 9.6877e-006 
-1.5952 93.7765 24.216 51.7777 88.7291 128.215 -2.22045e-016 -3.55271e-015 4.66705 -92.0977 -0.412747 -89.382 9.33409 -2.10942e-015 3.55271e-015 0.85623 -4.19075 -5.67777 11.0269 -2.66454e-015 0 1.35519 -4.05715 -1.71119 27.2125 -5.32907e-015 -10.2659 5.41145 -9.44429 44.5085 10.9224 -3.55271e-015 -1.42109e-014 -17.8914 -7.25575 -30.4813 23.8429 -1.55531 -7.12573 -108.112 -14.2683 11.1003 14.1892 0 -3.55271e-015 -2.99839 14.1706 -10.3881 29.5651 2.84217e-014 1.06581e-014 -0.138052 -12.2337 34.8599 25.3936 -2.84217e-014 2.4869e-014 33.1724 -0.927236 -2.26829 2.18163 2.84217e-014 3.55271e-015 -4.57553e-008 -2.07819e-007 1.60631e-008 6.77462 0.0865053 -1.22157 -21.6739 1.19639 -9.42508 23.8431 1.55531 -7.12577 98.1036 9.51571 175.479 -14.1892 0.000694916 -3.55271e-015 -12.608 30.072 3.20063 -29.5651 0 -4.27958e-007 5.37432 -28.9574 9.17076 -25.3936 2.7868e-008 -5.56579e-007 22.2792 3.46747 2.84476 -2.18182 -0.000553688 -9.22559e-006 1.20534e-006 2.447e-007 -8.05762e-008 -6.77445 -0.0859989 1.22158 -21.6739 1.19639 -9.42508 -8.89671 -5.28428 -4.10676 87.1158 0.737464 90.2412 43.6759 -1.06581e-014 -1.42109e-014 0.695696 15.5911 -2.29244 45.3154 -5.32907e-015 -2.13163e-014 94.9504 -20.9638 91.6742 14.6877 -1.77636e-015 -3.55271e-015 7.13107 -1.32155e-006 -5.71518e-006 8.89671 -5.28429 -4.10672 93.4633 -0.991076 -85.7371 -43.676 7.10543e-015 -3.48883e-006 1.54613 1.26922 -7.67152 -45.3154 -8.88178e-015 3.71138e-006 93.4136 -17.9963 91.6463 -14.6877 -1.30235e-006 -3.88953e-006 7.13108 2.11075e-007 9.6877e-006 
-1.58332 93.7757 24.202 50.9744 88.7489 129.009 0 0 4.66705 -91.6622 -0.0774857 -89.1846 9.33409 -1.9984e-015 0 0.152491 -3.32382 -5.2616 11.0269 -2.66454e-015 0 0.551843 -3.28137 -1.30003 27.2125 -7.10543e-015 -10.2659 6.86759 -10.3891 39.5615 10.9224 -3.55271e-015 0 -17.8051 -9.35939 -27.1566 23.8429 -1.55531 -7.12573 -103.75 -12.9134 8.27713 14.1892 0 -7.10543e-015 -5.86995 3.21993 -18.7199 29.5651 2.84217e-014 7.10543e-015 -3.2729 -4.27167 52.7763 25.3936 -2.84217e-014 3.55271e-014 36.5688 -2.03042 -9.53331 2.18163 2.84217e-014 0 -4.57553e-008 -2.07819e-007 1.60631e-008 6.77462 0.0865053 -1.22157 -21.6739 1.19639 -9.42508 23.8431 1.55531 -7.12577 98.7713 9.49482 175.327 -14.1892 0.000694916 -7.10543e-015 -15.9598 30.5609 7.10376 -29.5651 -2.84217e-014 -4.27958e-007 5.57182 -29.3042 8.48729 -25.3936 2.7868e-008 -5.56579e-007 22.2959 3.48143 2.76067 -2.18182 -0.000553688 -9.22559e-006 1.20534e-006 2.447e-007 -8.05762e-008 -6.77445 -0.0859989 1.22158 -21.6739 1.19639 -9.42508 -8.89671 -5.28428 -4.10676 87.1141 0.739656 90.2247 43.6759 -8.88178e-015 -1.77636e-014 0.701523 15.6248 -2.27684 45.3154 -3.55271e-015 -2.13163e-014 94.9531 -20.9498 91.6757 14.6877 -1.77636e-015 -3.55271e-015 7.13107 -1.32155e-006 -5.71518e-006 8.89671 -5.28429 -4.10672 93.4633 -0.991049 -85.747 -43.676 7.10543e-015 -3.48883e-006 1.5424 1.24854 -7.66116 -45.3154 -7.10543e-015 3.71138e-006 93.4099 -17.9936 91.6464 -14.6877 -1.30235e-006 -3.88953e-006 7.13108 2.11075e-007 9.6877e-006 
